<svg width="1024" height="1024" viewBox="0 0 1024 1024" fill="none" xmlns="http://www.w3.org/2000/svg">
  <defs>
    <linearGradient id="bg" x1="148" y1="112" x2="872" y2="948" gradientUnits="userSpaceOnUse">
      <stop stop-color="#162637"/>
      <stop offset="0.54" stop-color="#0A131B"/>
      <stop offset="1" stop-color="#070C12"/>
    </linearGradient>
    <radialGradient id="cyanGlow" cx="0" cy="0" r="1" gradientUnits="userSpaceOnUse" gradientTransform="translate(294 248) rotate(48.6) scale(448 590)">
      <stop stop-color="#56D8FF" stop-opacity="0.62"/>
      <stop offset="1" stop-color="#5AD9FF" stop-opacity="0"/>
    </radialGradient>
    <radialGradient id="amberGlow" cx="0" cy="0" r="1" gradientUnits="userSpaceOnUse" gradientTransform="translate(760 764) rotate(180) scale(268 268)">
      <stop stop-color="#FFB847" stop-opacity="0.22"/>
      <stop offset="1" stop-color="#FFB847" stop-opacity="0"/>
    </radialGradient>
    <linearGradient id="glass" x1="520" y1="232" x2="802" y2="440" gradientUnits="userSpaceOnUse">
      <stop stop-color="#5AE1FF" stop-opacity="0.36"/>
      <stop offset="1" stop-color="#1FB8C9" stop-opacity="0.10"/>
    </linearGradient>
    <linearGradient id="frontFill" x1="222" y1="436" x2="594" y2="714" gradientUnits="userSpaceOnUse">
      <stop stop-color="#132231" stop-opacity="0.92"/>
      <stop offset="1" stop-color="#091118" stop-opacity="0.72"/>
    </linearGradient>
    <linearGradient id="anchor" x1="314" y1="190" x2="522" y2="190" gradientUnits="userSpaceOnUse">
      <stop stop-color="#FFC54D"/>
      <stop offset="1" stop-color="#FF8D2A"/>
    </linearGradient>
  </defs>

  <rect x="56" y="56" width="912" height="912" rx="224" fill="url(#bg)"/>
  <rect x="56" y="56" width="912" height="912" rx="224" fill="url(#cyanGlow)"/>
  <rect x="56" y="56" width="912" height="912" rx="224" fill="url(#amberGlow)"/>

  <rect x="520" y="232" width="276" height="202" rx="54" fill="url(#glass)" stroke="white" stroke-opacity="0.3" stroke-width="24"/>
  <rect x="220" y="438" width="372" height="268" rx="64" fill="url(#frontFill)" stroke="#F7FBFF" stroke-width="30"/>

  <path d="M314 370V190H522" stroke="url(#anchor)" stroke-width="58" stroke-linecap="round" stroke-linejoin="round"/>
  <circle cx="314" cy="190" r="26" fill="#FFC54D"/>

  <path d="M286 512H462" stroke="white" stroke-opacity="0.14" stroke-width="18" stroke-linecap="round"/>
  <rect x="92" y="92" width="840" height="840" rx="188" stroke="white" stroke-opacity="0.08" stroke-width="8"/>
</svg>
